<?xml version="1.0" standalone="no"?>
<svg viewBox="0 0 200 200" xmlns="http://www.w3.org/2000/svg">
  <path fill="#FF0066" d="M38.2,-68.1C47.7,-60.6,52.4,-46.8,58.1,-34.4C63.9,-22,70.6,-11,75.1,2.6C79.5,16.1,81.7,32.3,74.3,41.8C66.9,51.3,50,54.2,36,59.2C22,64.1,11,71.2,-1.7,74.1C-14.3,76.9,-28.6,75.7,-40,69.2C-51.4,62.8,-59.9,51.1,-68.6,38.7C-77.3,26.3,-86.3,13.2,-88.8,-1.5C-91.3,-16.1,-87.4,-32.2,-78,-43.3C-68.6,-54.5,-53.6,-60.7,-39.7,-65.7C-25.8,-70.6,-12.9,-74.3,0.7,-75.5C14.3,-76.8,28.6,-75.6,38.2,-68.1Z" transform="translate(100 100)" />
</svg>
